<?xml version="1.0" encoding="UTF-8" standalone="no"?>
<svg
   xmlns:dc="http://purl.org/dc/elements/1.1/"
   xmlns:cc="http://creativecommons.org/ns#"
   xmlns:rdf="http://www.w3.org/1999/02/22-rdf-syntax-ns#"
   xmlns:svg="http://www.w3.org/2000/svg"
   xmlns="http://www.w3.org/2000/svg"
   xmlns:sodipodi="http://sodipodi.sourceforge.net/DTD/sodipodi-0.dtd"
   xmlns:inkscape="http://www.inkscape.org/namespaces/inkscape"
   version="1.1"
   id="SVGRoot"
   inkscape:export-filename="/Users/mayling/Desktop/p1.png"
   inkscape:export-xdpi="96"
   inkscape:export-ydpi="96"
   inkscape:version="1.0 (4035a4f, 2020-05-01)"
   sodipodi:docname="p1.svg"
   x="0px"
   y="0px"
   viewBox="0 0 595.3 419.5"
   style="enable-background:new 0 0 595.3 419.5;"
   xml:space="preserve"><metadata
   id="metadata304"><rdf:RDF><cc:Work
       rdf:about=""><dc:format>image/svg+xml</dc:format><dc:type
         rdf:resource="http://purl.org/dc/dcmitype/StillImage" /></cc:Work></rdf:RDF></metadata>
<style
   type="text/css"
   id="style10">
	.st0{opacity:0.8;}
	.st1{opacity:0.8;fill:#FDD74F;enable-background:new    ;}
	.st2{opacity:0.9;fill:#FFFF00;fill-opacity:0.8241;enable-background:new    ;}
	.st3{font-family:'jf-openhuninn-1.0';}
	.st4{font-size:40px;}
	.st5{fill:#FFE6D5;fill-opacity:0.963;}
	.st6{fill:#65DDB9;}
	.st7{fill:#46B29D;}
	.st8{fill:#14A085;}
	.st9{fill:#C0492B;}
	.st10{fill:#FFFFFF;}
	.st11{fill:#F79595;}
	.st12{fill:#EE6161;}
	.st13{fill:#F9B1B1;}
	.st14{fill:#F37C7C;}
	.st15{fill:#1A1A1A;fill-opacity:0.749;}
	.st16{fill:#B99471;}
	.st17{fill:#C9EBF4;}
	.st18{fill:#366130;}
	.st19{fill:#D2DCE4;}
	.st20{fill:#527592;}
	.st21{fill:#B5DEF3;}
	.st22{fill:#9C1C1F;}
	.st23{fill:#D3843D;}
	.st24{fill:#EFEEDC;}
	.st25{fill:#AD6327;}
	.st26{fill:#FFD782;}
	.st27{fill:#B11E48;}
	.st28{fill:#F9BB4B;}
	.st29{fill:#66342E;}
	.st30{fill:#F4F4E6;}
	.st31{fill:#50B4F8;}
	.st32{fill:#2D75BB;}
	.st33{fill:#C18E5C;}
	.st34{fill:#CDA57D;}
	.st35{fill:#A0A8B2;}
	.st36{fill:#C1C8D1;}
	.st37{fill:#F7D881;}
	.st38{fill:#4472B0;}
	.st39{fill:#EBF7FE;}
	.st40{opacity:0.9;fill:#FFFFFF;fill-opacity:0.8241;enable-background:new    ;}
	.st41{fill:#FFFF00;stroke:#000000;stroke-width:0.75;stroke-miterlimit:11.3386;}
	.st42{font-size:13px;}
	.st43{opacity:0.9;fill:#FFFFFF;fill-opacity:0.749;enable-background:new    ;}
</style>
<defs
   id="defs91">
	
		<inkscape:path-effect
   effect="powerstroke"
   end_linecap_type="round"
   id="path-effect3585"
   interpolator_beta="0.75"
   interpolator_type="CentripetalCatmullRom"
   is_visible="true"
   linejoin_type="spiro"
   lpeversion="1"
   miter_limit="4"
   offset_points="0.95399627,1.6868936"
   scale_width="1"
   sort_points="true"
   start_linecap_type="round">
		</inkscape:path-effect>
	
		<inkscape:path-effect
   effect="simplify"
   helper_size="0"
   id="path-effect3583"
   is_visible="true"
   lpeversion="1"
   simplify_individual_paths="false"
   simplify_just_coalesce="false"
   smooth_angles="0"
   step="1"
   steps="1"
   threshold="0.004158918">
		</inkscape:path-effect>
	
		<inkscape:path-effect
   effect="powerstroke"
   end_linecap_type="round"
   id="path-effect3578"
   interpolator_beta="0.75"
   interpolator_type="CentripetalCatmullRom"
   is_visible="true"
   linejoin_type="spiro"
   lpeversion="1"
   miter_limit="4"
   offset_points="0.42406392,1.6868936"
   scale_width="1"
   sort_points="true"
   start_linecap_type="round">
		</inkscape:path-effect>
	
		<inkscape:path-effect
   effect="simplify"
   helper_size="0"
   id="path-effect3576"
   is_visible="true"
   lpeversion="1"
   simplify_individual_paths="false"
   simplify_just_coalesce="false"
   smooth_angles="0"
   step="1"
   steps="1"
   threshold="0.004158918">
		</inkscape:path-effect>
	
		<inkscape:path-effect
   effect="powerstroke"
   end_linecap_type="round"
   id="path-effect3571"
   interpolator_beta="0.75"
   interpolator_type="CentripetalCatmullRom"
   is_visible="true"
   linejoin_type="spiro"
   lpeversion="1"
   miter_limit="4"
   offset_points="0.68335501,1.6868936"
   scale_width="1"
   sort_points="true"
   start_linecap_type="round">
		</inkscape:path-effect>
	
		<inkscape:path-effect
   effect="simplify"
   helper_size="0"
   id="path-effect3569"
   is_visible="true"
   lpeversion="1"
   simplify_individual_paths="false"
   simplify_just_coalesce="false"
   smooth_angles="0"
   step="1"
   steps="1"
   threshold="0.004158918">
		</inkscape:path-effect>
	
		<inkscape:path-effect
   effect="powerstroke"
   end_linecap_type="round"
   id="path-effect3562"
   interpolator_beta="0.75"
   interpolator_type="CentripetalCatmullRom"
   is_visible="true"
   linejoin_type="spiro"
   lpeversion="1"
   miter_limit="4"
   offset_points="0.71341496,1.6868936"
   scale_width="1"
   sort_points="true"
   start_linecap_type="round">
		</inkscape:path-effect>
	
		<inkscape:path-effect
   effect="simplify"
   helper_size="0"
   id="path-effect3560"
   is_visible="true"
   lpeversion="1"
   simplify_individual_paths="false"
   simplify_just_coalesce="false"
   smooth_angles="0"
   step="1"
   steps="1"
   threshold="0.004158918">
		</inkscape:path-effect>
	
		<inkscape:path-effect
   effect="powerstroke"
   end_linecap_type="round"
   id="path-effect3555"
   interpolator_beta="0.75"
   interpolator_type="CentripetalCatmullRom"
   is_visible="true"
   linejoin_type="spiro"
   lpeversion="1"
   miter_limit="4"
   offset_points="0.61216586,1.6868936"
   scale_width="1"
   sort_points="true"
   start_linecap_type="round">
		</inkscape:path-effect>
	
		<inkscape:path-effect
   effect="simplify"
   helper_size="0"
   id="path-effect3553"
   is_visible="true"
   lpeversion="1"
   simplify_individual_paths="false"
   simplify_just_coalesce="false"
   smooth_angles="0"
   step="1"
   steps="1"
   threshold="0.004158918">
		</inkscape:path-effect>
	
		<inkscape:path-effect
   effect="powerstroke"
   end_linecap_type="round"
   id="path-effect3548"
   interpolator_beta="0.75"
   interpolator_type="CentripetalCatmullRom"
   is_visible="true"
   linejoin_type="spiro"
   lpeversion="1"
   miter_limit="4"
   offset_points="0.7941739,3.9261777"
   scale_width="1"
   sort_points="true"
   start_linecap_type="round">
		</inkscape:path-effect>
	
		<inkscape:path-effect
   effect="simplify"
   helper_size="0"
   id="path-effect3546"
   is_visible="true"
   lpeversion="1"
   simplify_individual_paths="false"
   simplify_just_coalesce="false"
   smooth_angles="0"
   step="1"
   steps="1"
   threshold="0.004158918">
		</inkscape:path-effect>
	
		<inkscape:path-effect
   effect="powerstroke"
   end_linecap_type="round"
   id="path-effect3537"
   interpolator_beta="0.75"
   interpolator_type="CentripetalCatmullRom"
   is_visible="true"
   linejoin_type="spiro"
   lpeversion="1"
   miter_limit="4"
   offset_points="0.84456957,0.84344678"
   scale_width="1"
   sort_points="true"
   start_linecap_type="round">
		</inkscape:path-effect>
	
		<inkscape:path-effect
   effect="simplify"
   helper_size="0"
   id="path-effect3535"
   is_visible="true"
   lpeversion="1"
   simplify_individual_paths="false"
   simplify_just_coalesce="false"
   smooth_angles="0"
   step="1"
   steps="1"
   threshold="0.004158918">
		</inkscape:path-effect>
	
		<inkscape:path-effect
   effect="powerstroke"
   end_linecap_type="round"
   id="path-effect3530"
   interpolator_beta="0.75"
   interpolator_type="CentripetalCatmullRom"
   is_visible="true"
   linejoin_type="spiro"
   lpeversion="1"
   miter_limit="4"
   offset_points="2.5,0.5"
   scale_width="1"
   sort_points="true"
   start_linecap_type="round">
		</inkscape:path-effect>
	
		<inkscape:path-effect
   effect="simplify"
   helper_size="0"
   id="path-effect3528"
   is_visible="true"
   lpeversion="1"
   simplify_individual_paths="false"
   simplify_just_coalesce="false"
   smooth_angles="0"
   step="1"
   steps="1"
   threshold="0.004158918">
		</inkscape:path-effect>
	
		<inkscape:path-effect
   effect="powerstroke"
   end_linecap_type="round"
   id="path-effect3521"
   interpolator_beta="0.75"
   interpolator_type="CentripetalCatmullRom"
   is_visible="true"
   linejoin_type="spiro"
   lpeversion="1"
   miter_limit="4"
   offset_points="0.36094338,0.84344678"
   scale_width="1"
   sort_points="true"
   start_linecap_type="round">
		</inkscape:path-effect>
	
		<inkscape:path-effect
   effect="simplify"
   helper_size="0"
   id="path-effect3519"
   is_visible="true"
   lpeversion="1"
   simplify_individual_paths="false"
   simplify_just_coalesce="false"
   smooth_angles="0"
   step="1"
   steps="1"
   threshold="0.004158918">
		</inkscape:path-effect>
	
		<inkscape:path-effect
   effect="powerstroke"
   end_linecap_type="round"
   id="path-effect3514"
   interpolator_beta="0.75"
   interpolator_type="CentripetalCatmullRom"
   is_visible="true"
   linejoin_type="spiro"
   lpeversion="1"
   miter_limit="4"
   offset_points="0.45705568,0.84344678"
   scale_width="1"
   sort_points="true"
   start_linecap_type="round">
		</inkscape:path-effect>
	
		<inkscape:path-effect
   effect="simplify"
   helper_size="0"
   id="path-effect3512"
   is_visible="true"
   lpeversion="1"
   simplify_individual_paths="false"
   simplify_just_coalesce="false"
   smooth_angles="0"
   step="1"
   steps="1"
   threshold="0.004158918">
		</inkscape:path-effect>
	
		<inkscape:path-effect
   effect="powerstroke"
   end_linecap_type="round"
   id="path-effect3501"
   interpolator_beta="0.75"
   interpolator_type="CentripetalCatmullRom"
   is_visible="true"
   linejoin_type="spiro"
   lpeversion="1"
   miter_limit="4"
   offset_points="2.0720923,0.84344678"
   scale_width="1"
   sort_points="true"
   start_linecap_type="round">
		</inkscape:path-effect>
	
		<inkscape:path-effect
   effect="simplify"
   helper_size="0"
   id="path-effect3499"
   is_visible="true"
   lpeversion="1"
   simplify_individual_paths="false"
   simplify_just_coalesce="false"
   smooth_angles="0"
   step="1"
   steps="1"
   threshold="0.004158918">
		</inkscape:path-effect>
	
		<inkscape:path-effect
   effect="powerstroke"
   end_linecap_type="round"
   id="path-effect3494"
   interpolator_beta="0.75"
   interpolator_type="CentripetalCatmullRom"
   is_visible="true"
   linejoin_type="spiro"
   lpeversion="1"
   miter_limit="4"
   offset_points="2.4184781,0.76528965"
   scale_width="1"
   sort_points="true"
   start_linecap_type="round">
		</inkscape:path-effect>
	
		<inkscape:path-effect
   effect="simplify"
   helper_size="0"
   id="path-effect3492"
   is_visible="true"
   lpeversion="1"
   simplify_individual_paths="false"
   simplify_just_coalesce="false"
   smooth_angles="0"
   step="1"
   steps="1"
   threshold="0.004158918">
		</inkscape:path-effect>
	
		<inkscape:path-effect
   effect="powerstroke"
   end_linecap_type="round"
   id="path-effect3485"
   interpolator_beta="0.75"
   interpolator_type="CentripetalCatmullRom"
   is_visible="true"
   linejoin_type="spiro"
   lpeversion="1"
   miter_limit="4"
   offset_points="2.1948153,0.84344678"
   scale_width="1"
   sort_points="true"
   start_linecap_type="round">
		</inkscape:path-effect>
	
		<inkscape:path-effect
   effect="simplify"
   helper_size="0"
   id="path-effect3483"
   is_visible="true"
   lpeversion="1"
   simplify_individual_paths="false"
   simplify_just_coalesce="false"
   smooth_angles="0"
   step="1"
   steps="1"
   threshold="0.004158918">
		</inkscape:path-effect>
	
		<inkscape:path-effect
   effect="powerstroke"
   end_linecap_type="round"
   id="path-effect3478"
   interpolator_beta="0.75"
   interpolator_type="CentripetalCatmullRom"
   is_visible="true"
   linejoin_type="spiro"
   lpeversion="1"
   miter_limit="4"
   offset_points="2.969601,0.84344678"
   scale_width="1"
   sort_points="true"
   start_linecap_type="round">
		</inkscape:path-effect>
	
		<inkscape:path-effect
   effect="simplify"
   helper_size="0"
   id="path-effect3476"
   is_visible="true"
   lpeversion="1"
   simplify_individual_paths="false"
   simplify_just_coalesce="false"
   smooth_angles="0"
   step="1"
   steps="1"
   threshold="0.004158918">
		</inkscape:path-effect>
	
		<inkscape:path-effect
   effect="powerstroke"
   end_linecap_type="round"
   id="path-effect3471"
   interpolator_beta="0.75"
   interpolator_type="CentripetalCatmullRom"
   is_visible="true"
   linejoin_type="spiro"
   lpeversion="1"
   miter_limit="4"
   offset_points="0.77510112,0.84344678"
   scale_width="1"
   sort_points="true"
   start_linecap_type="round">
		</inkscape:path-effect>
	
		<inkscape:path-effect
   effect="simplify"
   helper_size="0"
   id="path-effect3469"
   is_visible="true"
   lpeversion="1"
   simplify_individual_paths="false"
   simplify_just_coalesce="false"
   smooth_angles="0"
   step="1"
   steps="1"
   threshold="0.004158918">
		</inkscape:path-effect>
	
		<inkscape:path-effect
   effect="powerstroke"
   end_linecap_type="round"
   id="path-effect3464"
   interpolator_beta="0.75"
   interpolator_type="CentripetalCatmullRom"
   is_visible="true"
   linejoin_type="spiro"
   lpeversion="1"
   miter_limit="4"
   offset_points="1.9178122,0.84344678"
   scale_width="1"
   sort_points="true"
   start_linecap_type="round">
		</inkscape:path-effect>
	
		<inkscape:path-effect
   effect="simplify"
   helper_size="0"
   id="path-effect3462"
   is_visible="true"
   lpeversion="1"
   simplify_individual_paths="false"
   simplify_just_coalesce="false"
   smooth_angles="0"
   step="1"
   steps="1"
   threshold="0.004158918">
		</inkscape:path-effect>
	
		<inkscape:path-effect
   effect="powerstroke"
   end_linecap_type="round"
   id="path-effect2417"
   interpolator_beta="0.75"
   interpolator_type="CentripetalCatmullRom"
   is_visible="true"
   linejoin_type="spiro"
   lpeversion="1"
   miter_limit="4"
   offset_points="0.94843641,0.70013959"
   scale_width="1"
   sort_points="true"
   start_linecap_type="round">
		</inkscape:path-effect>
	
		<inkscape:path-effect
   effect="simplify"
   helper_size="0"
   id="path-effect2415"
   is_visible="true"
   lpeversion="1"
   simplify_individual_paths="false"
   simplify_just_coalesce="false"
   smooth_angles="0"
   step="1"
   steps="1"
   threshold="0.004158918">
		</inkscape:path-effect>
	
		<inkscape:path-effect
   effect="powerstroke"
   end_linecap_type="round"
   id="path-effect2410"
   interpolator_beta="0.75"
   interpolator_type="CentripetalCatmullRom"
   is_visible="true"
   linejoin_type="spiro"
   lpeversion="1"
   miter_limit="4"
   offset_points="3.7408417,0.70013959"
   scale_width="1"
   sort_points="true"
   start_linecap_type="round">
		</inkscape:path-effect>
	
		<inkscape:path-effect
   effect="simplify"
   helper_size="0"
   id="path-effect2408"
   is_visible="true"
   lpeversion="1"
   simplify_individual_paths="false"
   simplify_just_coalesce="false"
   smooth_angles="0"
   step="1"
   steps="1"
   threshold="0.004158918">
		</inkscape:path-effect>
	
		<inkscape:path-effect
   effect="powerstroke"
   end_linecap_type="round"
   id="path-effect2403"
   interpolator_beta="0.75"
   interpolator_type="CentripetalCatmullRom"
   is_visible="true"
   linejoin_type="spiro"
   lpeversion="1"
   miter_limit="4"
   offset_points="1.5260447,0.70013959"
   scale_width="1"
   sort_points="true"
   start_linecap_type="round">
		</inkscape:path-effect>
	
		<inkscape:path-effect
   effect="simplify"
   helper_size="0"
   id="path-effect2401"
   is_visible="true"
   lpeversion="1"
   simplify_individual_paths="false"
   simplify_just_coalesce="false"
   smooth_angles="0"
   step="1"
   steps="1"
   threshold="0.004158918">
		</inkscape:path-effect>
	
		<inkscape:path-effect
   effect="powerstroke"
   end_linecap_type="round"
   id="path-effect2394"
   interpolator_beta="0.75"
   interpolator_type="CentripetalCatmullRom"
   is_visible="true"
   linejoin_type="spiro"
   lpeversion="1"
   miter_limit="4"
   offset_points="3.2333031,0.70013959"
   scale_width="1"
   sort_points="true"
   start_linecap_type="round">
		</inkscape:path-effect>
	
		<inkscape:path-effect
   effect="simplify"
   helper_size="0"
   id="path-effect2392"
   is_visible="true"
   lpeversion="1"
   simplify_individual_paths="false"
   simplify_just_coalesce="false"
   smooth_angles="0"
   step="1"
   steps="1"
   threshold="0.004158918">
		</inkscape:path-effect>
	
		<inkscape:path-effect
   effect="powerstroke"
   end_linecap_type="round"
   id="path-effect2387"
   interpolator_beta="0.75"
   interpolator_type="CentripetalCatmullRom"
   is_visible="true"
   linejoin_type="spiro"
   lpeversion="1"
   miter_limit="4"
   offset_points="1.0769231,0.70013959"
   scale_width="1"
   sort_points="true"
   start_linecap_type="round">
		</inkscape:path-effect>
	
		<inkscape:path-effect
   effect="simplify"
   helper_size="0"
   id="path-effect2385"
   is_visible="true"
   lpeversion="1"
   simplify_individual_paths="false"
   simplify_just_coalesce="false"
   smooth_angles="0"
   step="1"
   steps="1"
   threshold="0.004158918">
		</inkscape:path-effect>
	
		<inkscape:path-effect
   effect="powerstroke"
   end_linecap_type="round"
   id="path-effect2380"
   interpolator_beta="0.75"
   interpolator_type="CentripetalCatmullRom"
   is_visible="true"
   linejoin_type="spiro"
   lpeversion="1"
   miter_limit="4"
   offset_points="3.453211,0.70013959"
   scale_width="1"
   sort_points="true"
   start_linecap_type="round">
		</inkscape:path-effect>
	
		<inkscape:path-effect
   effect="simplify"
   helper_size="0"
   id="path-effect2378"
   is_visible="true"
   lpeversion="1"
   simplify_individual_paths="false"
   simplify_just_coalesce="false"
   smooth_angles="0"
   step="1"
   steps="1"
   threshold="0.004158918">
		</inkscape:path-effect>
	
		<inkscape:path-effect
   effect="powerstroke"
   end_linecap_type="round"
   id="path-effect2373"
   interpolator_beta="0.75"
   interpolator_type="CentripetalCatmullRom"
   is_visible="true"
   linejoin_type="spiro"
   lpeversion="1"
   miter_limit="4"
   offset_points="1.0068836,0.70013959"
   scale_width="1"
   sort_points="true"
   start_linecap_type="round">
		</inkscape:path-effect>
	
		<inkscape:path-effect
   effect="simplify"
   helper_size="0"
   id="path-effect2371"
   is_visible="true"
   lpeversion="1"
   simplify_individual_paths="false"
   simplify_just_coalesce="false"
   smooth_angles="0"
   step="1"
   steps="1"
   threshold="0.004158918">
		</inkscape:path-effect>
	
		<inkscape:path-effect
   effect="powerstroke"
   end_linecap_type="round"
   id="path-effect2366"
   interpolator_beta="0.75"
   interpolator_type="CentripetalCatmullRom"
   is_visible="true"
   linejoin_type="spiro"
   lpeversion="1"
   miter_limit="4"
   offset_points="0.5,0.5"
   scale_width="1"
   sort_points="true"
   start_linecap_type="round">
		</inkscape:path-effect>
	
		<inkscape:path-effect
   effect="simplify"
   helper_size="0"
   id="path-effect2364"
   is_visible="true"
   lpeversion="1"
   simplify_individual_paths="false"
   simplify_just_coalesce="false"
   smooth_angles="0"
   step="1"
   steps="1"
   threshold="0.004158918">
		</inkscape:path-effect>
	
		<inkscape:path-effect
   effect="powerstroke"
   end_linecap_type="round"
   id="path-effect2357"
   interpolator_beta="0.75"
   interpolator_type="CentripetalCatmullRom"
   is_visible="true"
   linejoin_type="spiro"
   lpeversion="1"
   miter_limit="4"
   offset_points="1.1013848,0.70013959"
   scale_width="1"
   sort_points="true"
   start_linecap_type="round">
		</inkscape:path-effect>
	
		<inkscape:path-effect
   effect="simplify"
   helper_size="0"
   id="path-effect2355"
   is_visible="true"
   lpeversion="1"
   simplify_individual_paths="false"
   simplify_just_coalesce="false"
   smooth_angles="0"
   step="1"
   steps="1"
   threshold="0.004158918">
		</inkscape:path-effect>
	
		<inkscape:path-effect
   effect="powerstroke"
   end_linecap_type="round"
   id="path-effect2350"
   interpolator_beta="0.75"
   interpolator_type="CentripetalCatmullRom"
   is_visible="true"
   linejoin_type="spiro"
   lpeversion="1"
   miter_limit="4"
   offset_points="3.3665948,0.70013959"
   scale_width="1"
   sort_points="true"
   start_linecap_type="round">
		</inkscape:path-effect>
	
		<inkscape:path-effect
   effect="simplify"
   helper_size="0"
   id="path-effect2348"
   is_visible="true"
   lpeversion="1"
   simplify_individual_paths="false"
   simplify_just_coalesce="false"
   smooth_angles="0"
   step="1"
   steps="1"
   threshold="0.004158918">
		</inkscape:path-effect>
	
		<inkscape:path-effect
   effect="powerstroke"
   end_linecap_type="round"
   id="path-effect2343"
   interpolator_beta="0.75"
   interpolator_type="CentripetalCatmullRom"
   is_visible="true"
   linejoin_type="spiro"
   lpeversion="1"
   miter_limit="4"
   offset_points="2.0811723,0.70013959"
   scale_width="1"
   sort_points="true"
   start_linecap_type="round">
		</inkscape:path-effect>
	
		<inkscape:path-effect
   effect="simplify"
   helper_size="0"
   id="path-effect2341"
   is_visible="true"
   lpeversion="1"
   simplify_individual_paths="false"
   simplify_just_coalesce="false"
   smooth_angles="0"
   step="1"
   steps="1"
   threshold="0.004158918">
		</inkscape:path-effect>
	
		<inkscape:path-effect
   effect="powerstroke"
   end_linecap_type="round"
   id="path-effect2336"
   interpolator_beta="0.75"
   interpolator_type="CentripetalCatmullRom"
   is_visible="true"
   linejoin_type="spiro"
   lpeversion="1"
   miter_limit="4"
   offset_points="3.7021157,0.70013959"
   scale_width="1"
   sort_points="true"
   start_linecap_type="round">
		</inkscape:path-effect>
	
		<inkscape:path-effect
   effect="simplify"
   helper_size="0"
   id="path-effect2334"
   is_visible="true"
   lpeversion="1"
   simplify_individual_paths="false"
   simplify_just_coalesce="false"
   smooth_angles="0"
   step="1"
   steps="1"
   threshold="0.004158918">
		</inkscape:path-effect>
	
		<inkscape:path-effect
   effect="powerstroke"
   end_linecap_type="round"
   id="path-effect2329"
   interpolator_beta="0.75"
   interpolator_type="CentripetalCatmullRom"
   is_visible="true"
   linejoin_type="spiro"
   lpeversion="1"
   miter_limit="4"
   offset_points="1.1315411,0.70013959"
   scale_width="1"
   sort_points="true"
   start_linecap_type="round">
		</inkscape:path-effect>
	
		<inkscape:path-effect
   effect="simplify"
   helper_size="0"
   id="path-effect2327"
   is_visible="true"
   lpeversion="1"
   simplify_individual_paths="false"
   simplify_just_coalesce="false"
   smooth_angles="0"
   step="1"
   steps="1"
   threshold="0.004158918">
		</inkscape:path-effect>
	
		<inkscape:path-effect
   effect="powerstroke"
   end_linecap_type="round"
   id="path-effect2322"
   interpolator_beta="0.75"
   interpolator_type="CentripetalCatmullRom"
   is_visible="true"
   linejoin_type="spiro"
   lpeversion="1"
   miter_limit="4"
   offset_points="4.7527345,0.70013959"
   scale_width="1"
   sort_points="true"
   start_linecap_type="round">
		</inkscape:path-effect>
	
		<inkscape:path-effect
   effect="simplify"
   helper_size="0"
   id="path-effect2320"
   is_visible="true"
   lpeversion="1"
   simplify_individual_paths="false"
   simplify_just_coalesce="false"
   smooth_angles="0"
   step="1"
   steps="1"
   threshold="0.004158918">
		</inkscape:path-effect>
	
		<inkscape:path-effect
   effect="powerstroke"
   end_linecap_type="round"
   id="path-effect2311"
   interpolator_beta="0.75"
   interpolator_type="CentripetalCatmullRom"
   is_visible="true"
   linejoin_type="spiro"
   lpeversion="1"
   miter_limit="4"
   offset_points="2.7298011,0.70013959"
   scale_width="1"
   sort_points="true"
   start_linecap_type="round">
		</inkscape:path-effect>
	
		<inkscape:path-effect
   effect="simplify"
   helper_size="0"
   id="path-effect2309"
   is_visible="true"
   lpeversion="1"
   simplify_individual_paths="false"
   simplify_just_coalesce="false"
   smooth_angles="0"
   step="1"
   steps="1"
   threshold="0.004158918">
		</inkscape:path-effect>
	
		<inkscape:path-effect
   effect="powerstroke"
   end_linecap_type="round"
   id="path-effect2302"
   interpolator_beta="0.75"
   interpolator_type="CentripetalCatmullRom"
   is_visible="true"
   linejoin_type="spiro"
   lpeversion="1"
   miter_limit="4"
   offset_points="0.97693133,0.70013959"
   scale_width="1"
   sort_points="true"
   start_linecap_type="round">
		</inkscape:path-effect>
	
		<inkscape:path-effect
   effect="simplify"
   helper_size="0"
   id="path-effect2300"
   is_visible="true"
   lpeversion="1"
   simplify_individual_paths="false"
   simplify_just_coalesce="false"
   smooth_angles="0"
   step="1"
   steps="1"
   threshold="0.004158918">
		</inkscape:path-effect>
	
		<inkscape:path-effect
   effect="powerstroke"
   end_linecap_type="round"
   id="path-effect2279"
   interpolator_beta="0.75"
   interpolator_type="CentripetalCatmullRom"
   is_visible="true"
   linejoin_type="spiro"
   lpeversion="1"
   miter_limit="4"
   offset_points="1,0.5"
   scale_width="1"
   sort_points="true"
   start_linecap_type="round">
		</inkscape:path-effect>
	
		<inkscape:path-effect
   effect="simplify"
   helper_size="0"
   id="path-effect2277"
   is_visible="true"
   lpeversion="1"
   simplify_individual_paths="false"
   simplify_just_coalesce="false"
   smooth_angles="0"
   step="1"
   steps="1"
   threshold="0.004158918">
		</inkscape:path-effect>
	
		<inkscape:path-effect
   effect="powerstroke"
   end_linecap_type="round"
   id="path-effect2270"
   interpolator_beta="0.75"
   interpolator_type="CentripetalCatmullRom"
   is_visible="true"
   linejoin_type="spiro"
   lpeversion="1"
   miter_limit="4"
   offset_points="1.5,0.5"
   scale_width="1"
   sort_points="true"
   start_linecap_type="round">
		</inkscape:path-effect>
	
		<inkscape:path-effect
   effect="simplify"
   helper_size="0"
   id="path-effect2268"
   is_visible="true"
   lpeversion="1"
   simplify_individual_paths="false"
   simplify_just_coalesce="false"
   smooth_angles="0"
   step="1"
   steps="1"
   threshold="0.004158918">
		</inkscape:path-effect>
	
		<inkscape:path-effect
   effect="powerstroke"
   end_linecap_type="round"
   id="path-effect2253"
   interpolator_beta="0.75"
   interpolator_type="CentripetalCatmullRom"
   is_visible="true"
   linejoin_type="spiro"
   lpeversion="1"
   miter_limit="4"
   offset_points="2.5,0.5"
   scale_width="1"
   sort_points="true"
   start_linecap_type="round">
		</inkscape:path-effect>
	
		<inkscape:path-effect
   effect="simplify"
   helper_size="0"
   id="path-effect2251"
   is_visible="true"
   lpeversion="1"
   simplify_individual_paths="false"
   simplify_just_coalesce="false"
   smooth_angles="0"
   step="1"
   steps="1"
   threshold="0.004158918">
		</inkscape:path-effect>
	
		<inkscape:path-effect
   effect="powerstroke"
   end_linecap_type="round"
   id="path-effect2244"
   interpolator_beta="0.75"
   interpolator_type="CentripetalCatmullRom"
   is_visible="true"
   linejoin_type="spiro"
   lpeversion="1"
   miter_limit="4"
   offset_points="0.5,0.5"
   scale_width="1"
   sort_points="true"
   start_linecap_type="round">
		</inkscape:path-effect>
	
		<inkscape:path-effect
   effect="simplify"
   helper_size="0"
   id="path-effect2242"
   is_visible="true"
   lpeversion="1"
   simplify_individual_paths="false"
   simplify_just_coalesce="false"
   smooth_angles="0"
   step="1"
   steps="1"
   threshold="0.004158918">
		</inkscape:path-effect>
	
		<inkscape:path-effect
   effect="powerstroke"
   end_linecap_type="round"
   id="path-effect2237"
   interpolator_beta="0.75"
   interpolator_type="CentripetalCatmullRom"
   is_visible="true"
   linejoin_type="spiro"
   lpeversion="1"
   miter_limit="4"
   offset_points="4.2644879,0.70013959"
   scale_width="1"
   sort_points="true"
   start_linecap_type="round">
		</inkscape:path-effect>
	
		<inkscape:path-effect
   effect="simplify"
   helper_size="0"
   id="path-effect2235"
   is_visible="true"
   lpeversion="1"
   simplify_individual_paths="false"
   simplify_just_coalesce="false"
   smooth_angles="0"
   step="1"
   steps="1"
   threshold="0.004158918">
		</inkscape:path-effect>
	
		<inkscape:path-effect
   effect="powerstroke"
   end_linecap_type="round"
   id="path-effect2230"
   interpolator_beta="0.75"
   interpolator_type="CentripetalCatmullRom"
   is_visible="true"
   linejoin_type="spiro"
   lpeversion="1"
   miter_limit="4"
   offset_points="0.78263518,0.70013959"
   scale_width="1"
   sort_points="true"
   start_linecap_type="round">
		</inkscape:path-effect>
	
		<inkscape:path-effect
   effect="simplify"
   helper_size="0"
   id="path-effect2228"
   is_visible="true"
   lpeversion="1"
   simplify_individual_paths="false"
   simplify_just_coalesce="false"
   smooth_angles="0"
   step="1"
   steps="1"
   threshold="0.004158918">
		</inkscape:path-effect>
	
		<inkscape:path-effect
   effect="powerstroke"
   end_linecap_type="round"
   id="path-effect2223"
   interpolator_beta="0.75"
   interpolator_type="CentripetalCatmullRom"
   is_visible="true"
   linejoin_type="spiro"
   lpeversion="1"
   miter_limit="4"
   offset_points="0.61150532,2.8005584"
   scale_width="1"
   sort_points="true"
   start_linecap_type="round">
		</inkscape:path-effect>
	
		<inkscape:path-effect
   effect="simplify"
   helper_size="0"
   id="path-effect2221"
   is_visible="true"
   lpeversion="1"
   simplify_individual_paths="false"
   simplify_just_coalesce="false"
   smooth_angles="0"
   step="1"
   steps="1"
   threshold="0.004158918">
		</inkscape:path-effect>
	
		<inkscape:path-effect
   copytype="single_stretched"
   effect="skeletal"
   fuse_tolerance="0"
   hide_knot="false"
   id="path-effect84"
   is_visible="true"
   lpeversion="1"
   normal_offset="0"
   pattern="M 0,5 C 0,2.24 2.24,0 5,0 7.76,0 10,2.24 10,5 10,7.76 7.76,10 5,10 2.24,10 0,7.76 0,5 Z"
   prop_scale="1"
   prop_units="false"
   scale_y_rel="false"
   spacing="0"
   tang_offset="0"
   vertical_pattern="false">
		</inkscape:path-effect>
</defs>
<sodipodi:namedview
   bordercolor="#666666"
   borderopacity="1.0"
   id="base"
   inkscape:current-layer="g93"
   inkscape:cx="286.13344"
   inkscape:cy="66.86599"
   inkscape:document-rotation="0"
   inkscape:document-units="mm"
   inkscape:pageopacity="0.0"
   inkscape:pageshadow="2"
   inkscape:snap-bbox="false"
   inkscape:window-height="755"
   inkscape:window-maximized="0"
   inkscape:window-width="1280"
   inkscape:window-x="0"
   inkscape:window-y="23"
   inkscape:zoom="1.975737"
   pagecolor="#ffffff"
   showgrid="false"
   showguides="false">
	</sodipodi:namedview>
<g
   id="layer1"
   inkscape:groupmode="layer"
   inkscape:label="Layer 1"
   class="st0">
	<rect
   id="rect1492"
   x="-4.2"
   y="-7.6"
   class="st1"
   width="602.9"
   height="429.3" />
	
		
	
		
	
		
	
		
	
		
	
		
	<path
   d="m 122.89279,66.670607 c -3.67707,-0.171629 -7.34157,-0.523991 -11.00733,-0.848612 -4.7831,-0.423372 -9.58475,-0.551899 -14.383713,-0.631938 -5.159637,-0.129541 -10.315992,0.01975 -15.472457,0.185421 -5.34204,0.15863 -10.684646,0.227078 -16.025942,0.41142 -5.593912,0.204792 -11.200747,0.166656 -16.785784,-0.214669 -4.061663,-0.444122 -8.137735,-0.554832 -12.219523,-0.526546 -2.11643,-0.07879 -4.25821,0.227291 -6.369891,0.03912 1.56192,0.21184 2.066843,0.09651 2.984034,2.638197 5.496759,1.564849 -0.729922,1.83051 -0.504078,2.726839 0.01389,0.0551 0.442948,-0.16851 0.791684,-0.333846 2.274742,-0.353854 4.582675,-0.426881 6.87754,-0.578679 3.232497,-0.19927 6.454099,-0.521751 9.689057,-0.688744 3.62322,-0.144236 7.250169,-0.146663 10.875669,-0.15668 3.74853,-0.03939 7.475826,-0.449111 11.210232,-0.729362 2.881156,-0.336172 5.766962,-0.577673 8.665081,-0.692602 3.15191,-0.01933 6.295888,-0.233119 9.441521,-0.410433 2.404168,-0.219184 4.803213,-0.09285 7.206282,0.03939 2.490578,0.289614 5.001608,0.400134 7.489548,0.706563 2.10746,0.250802 4.22091,0.422922 6.31556,0.77171 1.83461,0.299632 3.65001,0.689421 5.436,1.205485 1.51875,0.4467 3.06949,0.768108 4.63163,1.017528 1.43841,0.26166 -0.346,-0.0879 -0.80963,-0.420301 -0.10392,-0.07764 -0.19276,-0.171769 -0.28217,-0.264991 3.58688,3.994282 9.23565,-1.078347 5.64876,-5.072625 v 0 c -0.1787,-0.190965 -0.3601,-0.379379 -0.56492,-0.543202 -0.81883,-0.639331 -1.74438,-1.10927 -2.80157,-1.197068 -1.26301,-0.199027 -2.51658,-0.457824 -3.74348,-0.821353 -2.06967,-0.582741 -4.16492,-1.056403 -6.28889,-1.395976 -2.20434,-0.355657 -4.42307,-0.567883 -6.64095,-0.817736 -2.65084,-0.309287 -5.31875,-0.465422 -7.97279,-0.748672 -2.683793,-0.147639 -5.366073,-0.270143 -8.050702,-0.03883 -3.104514,0.175035 -6.207038,0.386936 -9.317815,0.404472 -2.986225,0.120524 -5.961915,0.355147 -8.930221,0.707862 -3.55223,0.267134 -7.097342,0.658468 -10.662495,0.708058 -3.749652,0.0104 -7.500838,0.0137 -11.248005,0.166847 -3.270869,0.170486 -6.528744,0.489788 -9.796891,0.695109 -3.263702,0.215961 -6.623783,0.183866 -9.726528,1.341266 -1.009242,0.506243 -2.992492,1.425944 -3.498086,2.476589 -0.485295,1.008464 -1.154349,2.133671 -0.921902,3.228422 0.647103,3.047659 1.950234,3.049279 3.999082,3.652409 2.305407,0.12764 4.615308,-0.0252 6.923023,-0.0229 3.893677,-0.0281 7.780116,0.0801 11.65433,0.50949 5.843,0.39055 11.707075,0.44647 17.559205,0.2274 5.335252,-0.1842 10.671863,-0.25117 16.007849,-0.41082 5.033191,-0.16173 10.066091,-0.31065 15.102425,-0.18255 4.617561,0.0765 9.237901,0.19702 13.840311,0.6034 3.88807,0.34422 7.77535,0.72258 11.67694,0.8782 5.36843,0 5.36843,-7.592106 0,-7.592106 z"
   id="path304"
   style="fill:#ffff00" /><text
   y="70.01226"
   x="27.540001"
   class="st3 st4"
   id="text101">Don't  </text>
	<path
   d="m 102.07178,112.61451 c 6.40306,0.3982 12.79578,0.91105 19.18071,1.53684 7.56569,0.84552 15.14177,1.57731 22.73968,2.0567 5.64687,0.32271 11.30318,0.35725 16.95457,0.56081 3.89899,0.25842 7.79907,0.15377 11.69935,0.0206 3.52267,-0.10233 7.04761,0.10909 10.56937,0.20275 4.05426,0.0966 8.10982,0.11489 12.16504,0.12713 4.02815,0.0872 8.04859,-0.064 12.04975,-0.53092 3.82377,-0.55773 7.61544,-1.3311 11.39906,-2.11351 2.40691,-0.43858 4.73423,-1.27575 6.86084,-2.48037 2.60678,-1.73126 3.14582,-4.00784 1.19116,-6.79685 -0.65232,-0.93077 -2.03103,-1.14808 -3.01975,-1.40794 -2.62957,-0.42282 -5.31511,-0.45718 -7.974,-0.60904 -2.85119,-0.33572 -5.7222,-0.43115 -8.57984,-0.68182 -2.54658,-0.30901 -5.11533,-0.33589 -7.66786,-0.55624 -2.76912,-0.2741 -5.54968,-0.38414 -8.33013,-0.45766 -2.36797,-0.10113 -4.74355,0.0322 -7.10897,-0.11229 -2.60007,-0.25395 -5.19248,-0.56317 -7.80013,-0.74835 -2.31074,-0.26613 -4.6242,-0.48744 -6.94675,-0.6158 -2.28196,-0.09872 -4.56676,-0.09645 -6.85039,-0.10029 -2.863,-0.06082 -5.72009,0.15169 -8.57643,0.31461 -2.21991,0.13395 -4.44381,0.17039 -6.66713,0.19025 -2.37768,0.0878 -4.74457,-0.0492 -7.11491,-0.21105 -2.25869,-0.19042 -4.52453,-0.240305 -6.78987,-0.271154 -2.39605,-0.02398 -4.79226,-0.02128 -7.1884,-0.02064 -2.60206,0.0013 -5.20411,0.0023 -7.80616,0.0028 -2.6848,-0.02115 -5.36401,-0.02662 -8.04339,0.153264 -2.31312,0.19933 -4.6382,0.20261 -6.95063,0.39598 -1.56976,0.28067 -3.31527,0.28465 -4.80727,0.92293 -0.44269,0.18939 -0.852142,0.44858 -1.278216,0.67286 -0.399763,0.40565 -0.900739,0.73195 -1.199288,1.21696 -1.773067,2.88043 -0.290168,5.2614 1.691285,7.34759 2.665509,2.39758 6.219209,3.14507 9.646239,3.74267 5.09847,0.71042 10.19814,-0.22866 15.25425,-0.83947 5.28715,-0.71273 10.616,-0.74418 15.93874,-0.68031 3.84581,0.0709 7.69137,0.15218 11.53758,0.19837 2.99643,0.0575 5.99506,-0.0326 8.98976,0.0887 2.89791,0.25265 5.80406,0.11668 8.70601,0.22693 2.2001,0.10617 4.40215,0.15979 6.60435,0.1966 0.0186,0.0719 3.19959,-0.0502 2.14243,-0.0624 5.35158,0.42493 5.95253,-7.14335 0.60094,-7.56828 v 0 c -1.12493,-0.0562 -1.50669,0.12685 -2.61677,0.0397 -2.15009,-0.0358 -4.30001,-0.0884 -6.44803,-0.19238 -2.8991,-0.10632 -5.80084,0.0205 -8.69577,-0.22654 -3.06264,-0.11357 -6.12761,-0.0472 -9.19183,-0.0938 -3.84647,-0.0461 -7.69228,-0.12801 -11.53836,-0.19838 -5.65714,-0.0667 -11.3206,-0.0181 -16.93977,0.7346 -4.32853,0.5231 -8.6967,1.37502 -13.06724,0.8927 -1.84812,-0.30593 -3.82909,-0.61248 -5.47491,-1.54668 -0.12511,-0.12273 -0.37116,-0.49708 -0.412,-0.32665 -0.12047,0.50275 1.26001,1.10828 -0.006,1.55093 -0.28764,1.13795 -0.60734,1.22979 -1.38079,1.86295 -0.1791,0.0636 -0.35563,0.13495 -0.53729,0.19079 -0.0631,0.0194 0.11667,-0.0647 0.18057,-0.0812 0.69083,-0.17819 1.42503,-0.3142 2.13133,-0.41452 0.27909,-0.0396 0.56042,-0.0614 0.84063,-0.0922 2.25593,-0.21751 4.53543,-0.15865 6.79272,-0.38364 2.50907,-0.17107 5.0183,-0.15023 7.53271,-0.13596 2.6022,-5.5e-4 5.20439,-0.002 7.80659,-0.003 2.36121,-6.2e-4 4.7225,-0.003 7.08362,0.0199 2.1271,0.0286 4.2547,0.0731 6.37543,0.25421 2.56487,0.17511 5.12799,0.31504 7.70039,0.22839 2.34476,-0.0212 4.69006,-0.0612 7.03121,-0.20226 2.70824,-0.15449 5.41679,-0.36274 8.13137,-0.30231 2.14909,0.004 4.29923,6e-4 6.44689,0.0889 2.28317,0.12443 4.55529,0.35798 6.8278,0.60834 2.64684,0.18603 5.27587,0.51859 7.91706,0.75571 2.44036,0.12466 4.88496,0.0467 7.32739,0.12118 2.63657,0.0691 5.2733,0.17203 7.89898,0.43403 2.54696,0.20662 5.10579,0.25831 7.64648,0.55443 2.93156,0.24917 5.87397,0.36638 8.79931,0.69754 2.28988,0.13075 4.60194,0.16976 6.8722,0.46467 -0.2823,-0.30871 -0.77079,-0.43544 -0.95964,-0.8087 -0.98056,-1.93805 -1.39164,-3.53262 0.49243,-5.00861 0.0259,-0.0203 -0.0451,0.0479 -0.0677,0.0718 -0.30215,0.24346 -0.12001,0.11584 -0.74119,0.38653 -1.20956,0.5271 -2.44817,0.98423 -3.76173,1.17455 -3.56817,0.74079 -7.14551,1.46502 -10.74932,2.00803 -3.69695,0.44272 -7.41409,0.55377 -11.13637,0.47855 -3.99569,-0.012 -7.99172,-0.0297 -11.98648,-0.12449 -3.67524,-0.0973 -7.35357,-0.31645 -11.02994,-0.201 -3.72308,0.12718 -7.44518,0.23411 -11.16704,-0.0201 -5.58333,-0.20095 -11.17136,-0.23716 -16.75039,-0.5507 -7.51031,-0.4724 -14.9984,-1.20133 -22.47687,-2.03556 -6.42149,-0.62872 -12.8506,-1.1479 -19.29039,-1.54678 -5.349887,-0.44582 -5.980377,7.12006 -0.63049,7.56588 z"
   id="path306"
   style="fill:#ffff00" /><text
   transform="matrix(1 0 0 1 27.54 113.9863)"
   class="st3 st4"
   id="text103">      Touch! </text>
	<path
   d="m 36.723017,166.77321 c 5.962618,-0.30197 11.920033,-0.64406 17.891216,-0.72099 7.643566,0.14149 15.283266,0.42263 22.926901,0.57041 7.572429,0.0509 15.136679,-0.48827 22.687866,-1.00307 5.6962,-0.36677 11.40134,-0.76766 17.11212,-0.74547 4.60632,0.13106 9.20707,0.26862 13.81486,0.1691 4.70284,-0.0999 9.40317,-0.20292 14.09449,-0.561 4.32078,-0.47286 8.66875,-0.46868 13.00644,-0.31155 4.79122,0.25663 9.58528,0.42195 14.3824,0.50644 5.56828,0.10761 11.13895,-0.002 16.70637,0.1355 5.07241,0.20128 10.11578,0.81134 15.18545,1.04166 3.64567,0.0968 7.2926,0.0116 10.9383,-0.0379 3.45988,-0.0761 6.90489,0.35965 10.35157,0.60848 3.95754,0.47663 7.90671,0.93077 11.89427,1.05897 4.86157,0.0425 9.63637,-0.98963 14.40689,-1.79101 3.88781,-0.67606 7.79179,-1.2495 11.71059,-1.71153 0.67236,-0.25722 1.91955,-0.0395 2.60434,-0.26382 0.61684,-0.20203 1.2259,-0.42706 1.83886,-0.6406 0.22211,-1.96539 1.0884,-3.96382 0.66635,-5.89617 -0.26875,-1.23045 -6.33292,-2.01719 -7.54005,-2.22409 -3.72999,-0.79864 -7.54459,-0.86753 -11.34168,-0.90231 -3.66942,-0.002 -7.33874,0.0314 -11.00811,0.0473 -4.25941,-0.11661 -8.51518,-0.31216 -12.77005,-0.53522 -5.01576,-0.40725 -10.05161,-0.44626 -15.08086,-0.47548 -4.07033,-0.0315 -8.14556,-0.16265 -12.20885,-0.41185 -4.29931,-0.35523 -8.6051,-0.62305 -12.90708,-0.94311 -4.37899,-0.30149 -8.70786,-0.99263 -13.04239,-1.65017 -4.83701,-0.68109 -9.72497,-0.92926 -14.60597,-0.91943 -4.53968,0.10403 -9.07786,0.25253 -13.61819,0.32945 -3.70842,0.0555 -7.41732,0.0655 -11.12609,0.0706 -3.17652,0.0158 -6.3533,-0.0452 -9.52833,0.0623 -4.49568,0.20572 -8.96826,0.72865 -13.45552,1.06762 -4.3256,0.43738 -8.66688,0.65972 -13.010892,0.79881 -3.583813,0.2297 -7.16834,0.41924 -10.758244,0.51795 -3.640017,0.22954 -7.290861,0.1574 -10.935754,0.13405 -4.067718,-0.10468 -8.130093,0.0267 -12.194004,0.18484 -4.402464,0.26509 -8.80381,0.0955 -13.198964,-0.18886 -4.108899,-0.33941 -8.231863,-0.23712 -12.341412,0.006 -3.454491,0.2352 -6.87973,0.72294 -10.246566,1.52857 -2.998253,0.71055 -5.557808,2.71514 -5.20172,6.15402 0.07303,0.70528 0.459907,1.34145 0.68986,2.01217 1.841324,2.80652 4.897086,4.01867 8.013105,4.83845 2.00388,0.51631 4.062317,0.48851 6.071785,0.0684 1.471472,-0.41327 1.895378,-0.99401 2.856773,-2.13917 2.666825,-4.65919 -3.922266,-8.43065 -6.589091,-3.77146 v 0 c 0.544145,-0.60807 0.952376,-1.28666 1.812676,-1.43478 0.06766,5.2e-4 0.269369,-0.0115 0.202975,0.002 -0.81294,0.15947 -1.689942,0.098 -2.487122,-0.0832 -0.818574,-0.19467 -1.569225,-0.42514 -2.341424,-0.76268 -0.177391,-0.0775 -0.352842,-0.15949 -0.527787,-0.2424 -0.09552,-0.0453 -0.184203,-0.17833 -0.283506,-0.14209 -0.07332,0.0267 0.02748,0.15366 0.04122,0.23049 0.118999,0.92401 0.25432,1.08436 -0.211944,2.05412 -0.408907,0.85046 -2.093747,1.13998 -0.256483,0.59487 2.922365,-0.72135 5.907472,-1.10512 8.907283,-1.32806 3.796693,-0.22607 7.605897,-0.32873 11.402046,-0.009 4.656257,0.30026 9.319702,0.47313 13.983525,0.1989 3.949438,-0.1537 7.896938,-0.28423 11.850156,-0.17925 3.730853,0.0239 7.467822,0.0951 11.193754,-0.13679 3.601222,-0.0997 7.197657,-0.28253 10.792478,-0.51897 4.453567,-0.14335 8.904637,-0.36941 13.339457,-0.81649 4.38559,-0.33163 8.75706,-0.83834 13.14999,-1.05071 3.08925,-0.11324 6.1814,-0.0327 9.27225,-0.0576 3.74817,-0.005 7.49646,-0.0154 11.24428,-0.0717 4.50533,-0.0765 9.00862,-0.22085 13.51321,-0.32839 4.49211,-0.0197 8.99133,0.21935 13.44388,0.83364 4.5259,0.68611 9.04714,1.39941 13.6191,1.71519 4.33606,0.32072 8.6755,0.59372 13.00887,0.94997 4.20217,0.25249 8.41545,0.39615 12.62477,0.42567 4.91138,0.0283 9.82928,0.0641 14.72731,0.46519 4.39809,0.23055 8.79732,0.43438 13.20037,0.54556 3.6358,-0.0157 7.27155,-0.0486 10.9074,-0.0475 3.39155,0.0295 6.79969,0.0639 10.12974,0.79397 1.30018,0.2218 2.59398,0.49546 3.89773,0.69459 0.14319,0.0219 0.52469,0.1532 0.43257,0.0414 -0.31241,-0.37915 -1.13697,-0.42587 -1.15394,-0.91686 -0.0654,-1.89262 0.619,-3.73657 0.9285,-5.60486 1.54409,-0.48095 2.21363,-0.55736 1.39345,-0.48836 -0.8942,0.0752 -1.78602,0.17654 -2.67781,0.27552 -4.04212,0.47745 -8.06937,1.06704 -12.07966,1.7643 -4.27889,0.72007 -8.55984,1.6653 -12.91674,1.68944 -3.88363,-0.11075 -7.72314,-0.6084 -11.57952,-1.04283 -3.66267,-0.2638 -7.32352,-0.72003 -11.00084,-0.62744 -3.49897,0.0476 -6.99901,0.12933 -10.49808,0.0447 -5.12056,-0.22175 -10.21337,-0.87051 -15.33793,-1.04691 -5.58464,-0.13365 -11.17206,-0.0346 -16.75753,-0.13656 -4.75196,-0.0833 -9.50071,-0.24951 -14.24685,-0.50285 -4.62145,-0.16052 -9.25403,-0.16909 -13.8579,0.32916 -4.55207,0.35347 -9.11402,0.43738 -13.67734,0.54043 -4.54568,0.1 -9.08416,-0.0502 -13.6286,-0.17088 -5.89038,-0.0102 -11.77465,0.37263 -17.649858,0.76306 -7.330352,0.50071 -14.673461,1.02661 -22.024336,0.98687 -7.725928,-0.14917 -15.447779,-0.43902 -23.173854,-0.57116 -5.937429,0.0803 -11.862937,0.39337 -17.790921,0.72033 -5.368428,0 -5.368428,7.5921 0,7.5921 z"
   id="path308"
   style="fill:#ffff00" /><text
   transform="matrix(1 0 0 1 27.54 159.4834)"
   class="st3 st4"
   id="text105">防疫日常守則</text>
	<path
   id="path2421"
   class="st5"
   d="M376.9,354.9c-3.4-2.8-3.4-2.6,0.6-12.1c4.3-10.3,12.4-21.9,24.9-35.5   c21.7-23.4,46.3-49,52.7-54.8c7.1-6.4,8-9.7,2.8-10.3c-5.2-0.6-29.2,17.6-56.5,42.9c-26.3,24.4-44.1,36.6-53.4,36.6   c-2.7,0-3.4-0.6-3.4-2.6c0-7.6,9.4-24.7,20-36.5c9.3-10.3,33.4-31.3,50.7-44.2c12-8.9,16.7-13.1,16.7-14.9c0-4.4-5.7-3.1-14.4,3.1   c-4.3,3.1-10.7,6.9-14.3,8.4c-3.6,1.5-10.8,5.8-16.1,9.6c-15.7,11.2-18.9,12.9-24.2,12.9c-2.7,0-5.2-0.5-5.7-1.1   c-1.6-2.1,6.7-12.7,16.8-21.5c5.5-4.8,17.7-13.9,27-20.2c9.3-6.3,21.5-15.3,27-20.2c25.9-22.6,43.6-52.2,56.2-93.7   c9.3-30.9,9.5-32,11.4-70.5c1-20,2.1-36.7,2.5-37c0.4-0.3,3.3,0,6.6,0.7c3.2,0.7,21.6,1.5,40.9,1.8c28.4,0.5,36.4,0.3,42.6-1.1   l7.6-1.6l0.8,3.3c2.2,9.2,2.3,35.9,0.2,58.9c-5.3,57.4-14.2,92.6-41.2,162.7c-6.1,15.8-14.6,38.7-18.8,50.9   c-12.5,35.7-24.6,54.8-33,52.1c-4.2-1.3-0.9-15.4,9.5-40.4c6.1-14.7,6.6-17.8,2.8-17.8c-3.2,0-7.8,5.9-22.1,28.5   c-14.9,23.5-22,32.5-32.3,40.4c-7.2,5.6-11.6,7.5-17.3,7.5c-3.2,0-3.4-0.3-2.7-4c1.3-6.4,9-18.8,20.7-33.1   c12.6-15.4,25.2-35.1,24.1-37.5c-1.8-3.9-6.2-1.7-13.9,6.9c-4.2,4.7-13.9,14.6-21.4,22c-7.5,7.4-19.8,20.8-27.1,29.9   c-15.1,18.5-22.2,25.5-30.6,30.3C386.9,357.7,380.8,358.1,376.9,354.9z" />
	<g
   id="g3211"
   transform="matrix(0.05105684,0,0,0.0481396,112.36534,85.895497)">
		<path
   id="path3131"
   class="st6"
   d="M4738.3,3548.8c-13.8,0-25-11.2-25-25v-100.1c0-13.8,11.2-25,25-25s25,11.2,25,25v100.1    C4763.3,3537.6,4752.1,3548.8,4738.3,3548.8z" />
		<path
   id="path3133"
   class="st6"
   d="M4402.1,3688c-6.6,0-13-2.6-17.7-7.3l-88.5-88.5c-9.5-9.8-9.3-25.4,0.3-35.1    c9.7-9.7,25.3-9.8,35.1-0.3l88.5,88.5c7.2,7.2,9.3,17.9,5.4,27.3C4421.4,3681.9,4412.2,3688,4402.1,3688z" />
		<path
   id="path3135"
   class="st6"
   d="M4262.9,4024.2h-100.1c-13.8,0-25-11.2-25-25c0-13.8,11.2-25,25-25h100.1c13.8,0,25,11.2,25,25    C4287.9,4013,4276.7,4024.2,4262.9,4024.2z" />
		<path
   id="path3137"
   class="st6"
   d="M4313.6,4448.9c-10.1,0-19.2-6.1-23.1-15.4c-3.9-9.3-1.7-20.1,5.4-27.3l88.5-88.5    c9.8-9.5,25.4-9.4,35.1,0.3c9.7,9.7,9.8,25.3,0.3,35.1l-88.5,88.5C4326.6,4446.2,4320.3,4448.9,4313.6,4448.9z" />
		<path
   id="path3139"
   class="st6"
   d="M4738.3,4599.7c-13.8,0-25-11.2-25-25v-100.1c0-13.8,11.2-25,25-25s25,11.2,25,25v100.1    C4763.3,4588.5,4752.1,4599.7,4738.3,4599.7z" />
		<path
   id="path3141"
   class="st6"
   d="M5163,4448.9c-6.6,0-13-2.6-17.7-7.3l-88.5-88.5c-9.5-9.8-9.4-25.4,0.3-35.1    c9.7-9.7,25.3-9.8,35.1-0.3l88.5,88.5c7.2,7.2,9.3,17.9,5.4,27.3C5182.2,4442.8,5173.1,4448.9,5163,4448.9z" />
		<path
   id="path3143"
   class="st6"
   d="M5338.9,4024.2h-125.1c-13.8,0-25-11.2-25-25c0-13.8,11.2-25,25-25h125.1c13.8,0,25,11.2,25,25    C5363.9,4013,5352.7,4024.2,5338.9,4024.2z" />
		<path
   id="path3145"
   class="st6"
   d="M5074.5,3688c-10.1,0-19.2-6.1-23.1-15.5c-3.9-9.3-1.7-20.1,5.4-27.3l88.5-88.5    c6.3-6.5,15.6-9.1,24.3-6.8c8.7,2.3,15.6,9.1,17.9,17.9c2.3,8.7-0.3,18-6.8,24.3l-88.5,88.5    C5087.5,3685.4,5081.1,3688,5074.5,3688z" />
		<path
   id="path3147"
   class="st7"
   d="M5213.7,3999.2c0,262.6-212.9,475.4-475.4,475.4c-262.6,0-475.4-212.9-475.4-475.4    s212.9-475.4,475.4-475.4C5000.9,3523.8,5213.7,3736.6,5213.7,3999.2z" />
		<path
   id="path3149"
   class="st6"
   d="M4738.3,4399.6c-13.8,0-25-11.2-25-25s11.2-25,25-25c193.4-0.2,350.1-156.9,350.3-350.3    c0-13.8,11.2-25,25-25s25,11.2,25,25C5138.4,4220.2,4959.3,4399.3,4738.3,4399.6z" />
		<g
   id="g3177">
			<path
   id="path3151"
   class="st8"
   d="M4938.5,3824c0,55.3-44.8,100.1-100.1,100.1c-55.3,0-100.1-44.8-100.1-100.1     c0-55.3,44.8-100.1,100.1-100.1C4893.7,3723.9,4938.5,3768.8,4938.5,3824z" />
			<path
   id="path3153"
   class="st8"
   d="M4588.2,3899.1c0,41.5-33.6,75.1-75.1,75.1c-41.5,0-75.1-33.6-75.1-75.1     c0-41.5,33.6-75.1,75.1-75.1C4554.6,3824,4588.2,3857.6,4588.2,3899.1z" />
			<path
   id="path3155"
   class="st8"
   d="M4813.4,4124.3c0,41.5-33.6,75.1-75.1,75.1s-75.1-33.6-75.1-75.1c0-41.5,33.6-75.1,75.1-75.1     S4813.4,4082.8,4813.4,4124.3z" />
			<path
   id="path3157"
   class="st8"
   d="M4463.1,4149.3c-3.3,0-6.5-0.7-9.5-2c-3-1.3-5.8-3-8.3-5.2c-2.3-2.4-4-5.2-5.2-8.3     c-1.3-3-2-6.2-2-9.5c0.1-6.6,2.7-13,7.3-17.8c2.4-2.2,5.2-4,8.3-5.3c9.3-3.8,20-1.7,27.3,5.3c4.6,4.8,7.2,11.1,7.3,17.8     c0,3.3-0.7,6.5-2,9.5c-1.2,3.1-3,5.9-5.3,8.3C4476,4146.6,4469.7,4149.2,4463.1,4149.3z" />
			<path
   id="path3159"
   class="st8"
   d="M4588.2,4299.5c-3.3,0-6.5-0.7-9.5-2c-3-1.3-5.8-3.1-8.3-5.3c-2.3-2.4-4-5.2-5.2-8.3     c-1.3-3-2-6.2-2-9.5c0.1-6.6,2.7-13,7.3-17.8c2.4-2.2,5.2-4,8.3-5.3c9.3-3.8,20-1.7,27.3,5.3c4.6,4.8,7.2,11.1,7.3,17.8     c0,3.3-0.7,6.5-2,9.5c-1.2,3.1-3,5.9-5.3,8.3C4601.1,4296.8,4594.8,4299.4,4588.2,4299.5z" />
			<path
   id="path3161"
   class="st8"
   d="M4813.4,3348.6c0,41.5-33.6,75.1-75.1,75.1s-75.1-33.6-75.1-75.1c0-41.5,33.6-75.1,75.1-75.1     S4813.4,3307.1,4813.4,3348.6z" />
			<path
   id="path3163"
   class="st8"
   d="M4343,3503.8c0,55.3-44.8,100.1-100.1,100.1s-100.1-44.8-100.1-100.1s44.8-100.1,100.1-100.1     S4343,3448.5,4343,3503.8z" />
			<path
   id="path3165"
   class="st8"
   d="M4162.8,3999.2c0,34.5-28,62.6-62.6,62.6c-34.6,0-62.6-28-62.6-62.6c0-34.5,28-62.6,62.6-62.6     C4134.8,3936.6,4162.8,3964.6,4162.8,3999.2z" />
			<path
   id="path3167"
   class="st8"
   d="M4343,4494.6c0,55.3-44.8,100.1-100.1,100.1s-100.1-44.8-100.1-100.1     c0-55.3,44.8-100.1,100.1-100.1S4343,4439.3,4343,4494.6z" />
			<path
   id="path3169"
   class="st8"
   d="M4813.4,4649.8c0,41.5-33.6,75.1-75.1,75.1s-75.1-33.6-75.1-75.1c0-41.5,33.6-75.1,75.1-75.1     S4813.4,4608.3,4813.4,4649.8z" />
			<path
   id="path3171"
   class="st8"
   d="M5333.8,4494.6c0,55.3-44.8,100.1-100.1,100.1s-100.1-44.8-100.1-100.1     c0-55.3,44.8-100.1,100.1-100.1S5333.8,4439.3,5333.8,4494.6z" />
			<path
   id="path3173"
   class="st8"
   d="M5489,3999.2c0,41.5-33.6,75.1-75.1,75.1c-41.5,0-75.1-33.6-75.1-75.1s33.6-75.1,75.1-75.1     C5455.4,3924.1,5489,3957.7,5489,3999.2z" />
			<path
   id="path3175"
   class="st8"
   d="M5333.8,3503.8c0,55.3-44.8,100.1-100.1,100.1s-100.1-44.8-100.1-100.1     s44.8-100.1,100.1-100.1S5333.8,3448.5,5333.8,3503.8z" />
		</g>
	</g>
	<g
   id="g93"
   transform="matrix(1.3529625,0,0,1.2489474,-116.903,-9.5523983)">
		<g
   transform="matrix(0.96243451,0,0,1,16.758963,0)"
   id="g1490">
			
				<ellipse
   id="path1479"
   transform="matrix(0.06468588,-0.9979,0.9979,0.06468588,279.1751,417.5864)"
   class="st9"
   cx="362.39999"
   cy="59.900002"
   rx="91.800003"
   ry="83.699997" />
			<ellipse
   id="path1481"
   class="st10"
   cx="362.79999"
   cy="61.599998"
   rx="74.099998"
   ry="65.800003" />
			<polygon
   id="rect1485"
   class="st9"
   points="285.8,82 439.1,34.4 439.1,46.3 285.8,93.9 " />
		</g>
	</g>
	<path
   id="path2248"
   d="M336,1382.6l1213-38.4" />
	<path
   id="path2257"
   d="M1613,1331.4l-11.8,10.3" />
	<path
   id="path2259"
   d="M1603.4,1344.2l-8-11.5" />
	<path
   id="path2261"
   d="M1593.8,1331.4l7.6-1.8" />
	<path
   id="path2265"
   d="M1920.3,518.5l48-316.8" />
	<path
   id="path2274"
   d="M1968.3,9.6l-240,777.7" />
	<path
   id="path2283"
   d="M1779.4,774.5l-83.2,118.4" />
	<path
   id="path2285"
   d="M1782.6,908.9l6.4-6.4" />
	<path
   id="path2287"
   d="M1795.4,899.3l12.8-12.8" />
	<path
   id="path2289"
   d="M1811.4,883.3l3.2-3.2" />
	<path
   id="path2291"
   d="M1814.6,880.1h3.2" />
	<path
   id="path2293"
   d="M1584.2,956.9l76.8,160" />
	<path
   id="path2315"
   d="M1926.7,819.3l-176,265.6" />
	<path
   id="path2423"
   class="st0"
   d="M0,0" />
	<g
   id="g3027"
   transform="matrix(0.02768068,0,0,0.02481168,124.01141,71.418997)">
		<g
   id="g3023">
			<g
   id="XMLID_427_">
				<g
   id="g2986">
					<path
   id="path2984"
   class="st11"
   d="M9589.5,5992.3c23.9,4.7,39.5,27.9,34.8,51.7l-17.4,88.8c-4.8,24.6-29.2,40.3-53.8,34.3       c-23-5.6-37-29.2-32.5-52.5l0.5-2.4l-114.9,5.2c-3.5,0.1-6.5,2.4-7.5,5.8c-11.2,33.9-26,66.2-43.9,96.4       c-1.8,3.1-1.5,6.9,0.8,9.7l50.8,60.4c10.1-9.6,23.3-14.6,36.6-14.6c11.2,0,22.6,3.5,32.2,10.9c23.3,17.8,27.7,51.1,9.9,74.4       l-14.7,19.2c-17.3,22.6-49.5,28.7-73,12.5c-20.2-13.9-27.5-38.9-20.2-60.7l-73.2-32.2c-3.3-1.4-7.1-0.6-9.6,2.1       c-33.9,37.2-73.4,69.2-117.1,94.8c-3,1.8-4.6,5.2-4.1,8.6l18.7,114.3l16.2-6.5c23.3-9.3,49.7,2.6,58.1,26.6       c7.8,22.4-4.4,46.9-26.4,55.7l-82.9,33.2c-23.2,9.3-49.7-2.6-58-26.6c-7.8-22.4,4.4-46.9,26.4-55.8l2.2-0.9l-66.8-93.7       c-2-2.8-5.6-4.1-8.9-3.2c-39.9,10.3-81.8,15.9-125,15.9c-34.2,0-67.5-3.5-99.8-10.1c-3.4-0.7-6.9,0.8-8.8,3.7l-66.9,104.9       l2.4,0.9c21.8,7.9,35.3,28.5,35.3,50.4c0,6.1-1,12.3-3.3,18.4c0,31.4-24.1,48.3-53.6,37.5l-82.2-30       c-27.5-10-41.8-40.2-32.3-67.8c9.8-28.4,42.2-42.8,70.4-32.5l1.9,0.7l13.6-122.9c0.4-3.5-1.4-6.7-4.5-8.4       c-52-26.9-98.7-62.7-138-105.4c-2.4-2.6-6.1-3.4-9.3-2.1l-100.3,41.1c11.3,21.2,5,48.1-15.7,61.7       c-21.6,14.2-50.8,7.6-65.5-13.6l-25.7-37c-14.4-20.7-11-49.5,8.8-65.1c21.1-16.6,51.2-12.3,67,8.6l70.6-79.8       c2.4-2.7,2.8-6.5,1-9.6c-29-52.3-48.8-110.3-57.4-172c-0.5-3.5-3-6.3-6.4-7l-112.9-26.1l-0.1,13.2       c-0.1,13.2-5.6,25.2-14.3,33.9c-8.7,8.7-20.7,14-34,14c-26.4,0-47.7-21.5-47.5-47.9l0.7-82c0.2-26.8,22.4-49.4,49.2-48.7       c26,0.7,46.7,22.1,46.6,48.1l112.1-26.3c3.4-0.8,5.9-3.6,6.4-7.1c8.8-65.2,30.2-126.4,61.8-181c1.8-3.1,1.4-6.9-0.9-9.6       l-53.4-62.8l-4.6,6.1c-14.4,19-41.9,22.4-60.5,6.9c-17.4-14.5-19.5-40.5-5.9-58.6l35.6-47.1c8.3-10.9,20.8-16.7,33.6-16.7       c8.8,0,17.7,2.8,25.3,8.5c17.6,13.3,21.7,37.7,10.1,56l74.7,32.3c3.3,1.4,7.1,0.6,9.5-2.1c35.3-38.7,76.6-71.7,122.4-97.7       c3-1.7,4.7-5.1,4.2-8.5l-17.2-114.5l-16.3,6.3c-23.4,9-49.7-3.3-57.7-27.3c-7.5-22.5,5-46.9,27.2-55.4l83.3-32       c23.4-9,49.7,3.3,57.7,27.3c7.5,22.5-5,46.9-27.2,55.4l-2.2,0.9l65.5,94.5c2,2.9,5.5,4.2,8.9,3.3c38-9.3,77.8-14.3,118.7-14.3       h0.1c3.6,0,6.8-2.2,8-5.6l21.7-60.7c-25.1-7.9-41.9-32.7-38.7-59.7c3.7-30.6,33-52.4,63.6-48.6l29.8,3.7       c30.4,3.8,53.2,31,49.9,61.5c-2.6,23.7-19.7,42.2-41.3,47.9l7.5,65.8c0.4,3.5,3,6.4,6.5,7.2c50.4,11.1,97.9,29.8,141.3,54.9       c3,1.7,6.8,1.5,9.5-0.7l89.9-73l-13.7-10.9c-19.6-15.6-22.4-44.5-5.8-63.6c15.6-17.9,42.9-19.5,61.5-4.7l69.9,55.5       c19.6,15.6,22.4,44.5,5.8,63.6c-15.6,17.9-42.9,19.4-61.5,4.7l-1.9-1.5l-48.2,104.6c-1.5,3.1-0.8,6.9,1.6,9.4       c33.9,34.7,62.8,74.4,85.4,117.8c1.6,3.1,5.1,4.9,8.6,4.5l68.3-9.6c-10-28,4.8-59,33.5-68.4c27.3-9,56.7,6.2,66.8,33.1       l15.7,42.2c9.9,26.7-2,57.2-28.1,68.5c-25,10.9-53.2,1-66.6-21.1l-56.7,38.4c-3,2-4.3,5.7-3.3,9.2       c11.6,42.2,17.9,86.7,17.9,132.6c0,7.7-0.2,15.3-0.5,22.9c-0.1,3.5,1.8,6.7,5,8.1l106.2,46.4l3.3-17.1       C9542.5,6003.2,9565.7,5987.6,9589.5,5992.3z" />
				</g>
			</g>
			<ellipse
   id="ellipse2989"
   class="st12"
   cx="9142.6"
   cy="5722.1"
   rx="70.2"
   ry="58.7" />
			<ellipse
   id="circle2991"
   class="st12"
   cx="8889.3"
   cy="6087.5"
   rx="2.1"
   ry="1.9" />
			<ellipse
   id="circle2993"
   class="st13"
   cx="9188.3"
   cy="6047.6"
   rx="1.5"
   ry="1.4" />
			<ellipse
   id="circle2995"
   class="st13"
   cx="8985.4"
   cy="6315.6"
   rx="1.5"
   ry="1.3" />
			<g
   id="g2999">
				<path
   id="path2997"
   class="st14"
   d="M8624.5,5943c0-191.1,91.2-360.9,232.3-468.4c-16.5,2.3-32.7,5.5-48.7,9.4      c-3.4,0.8-6.9-0.5-8.9-3.3l-65.5-94.5l2.2-0.9c22.2-8.5,34.7-32.9,27.2-55.4c-8-24.1-34.3-36.3-57.7-27.3l-83.3,32      c-22.1,8.5-34.7,32.9-27.2,55.4c8,24,34.3,36.3,57.7,27.3l16.3-6.3l17.2,114.5c0.5,3.4-1.2,6.8-4.2,8.5      c-45.9,26-87.2,59-122.4,97.7c-2.4,2.6-6.2,3.5-9.5,2.1l-74.7-32.3c11.6-18.3,7.5-42.7-10.1-56c-7.6-5.7-16.5-8.5-25.3-8.5      c-12.7,0-25.3,5.8-33.6,16.7l-35.6,47.1c-13.7,18.1-11.5,44.1,5.9,58.6c18.6,15.4,46.1,12.1,60.5-6.9l4.6-6.1l53.4,62.8      c2.3,2.7,2.6,6.5,0.9,9.6c-31.5,54.7-53,115.9-61.8,181c-0.5,3.5-3,6.3-6.4,7.1l-112.1,26.3c0.1-26.1-20.6-47.5-46.6-48.1      c-26.8-0.7-49,21.9-49.2,48.7l-0.7,82c-0.3,26.4,21.1,47.9,47.5,47.9c13.3,0,25.3-5.3,34-14c8.8-8.6,14.2-20.6,14.3-33.9      l0.1-13.2l112.9,26.1c3.4,0.8,5.9,3.6,6.4,7c8.5,61.7,28.4,119.7,57.4,172c1.7,3.1,1.3,6.9-1,9.6l-70.6,79.8      c-15.8-20.9-45.9-25.2-67-8.6c-19.8,15.6-23.1,44.4-8.8,65.1l25.7,37c14.7,21.2,43.9,27.8,65.5,13.6      c20.7-13.6,27.1-40.5,15.7-61.7l100.3-41.1c3.2-1.3,6.9-0.5,9.3,2.1c39.3,42.7,86,78.5,138,105.4c3.1,1.6,4.9,4.9,4.5,8.4      l-13.6,122.9l-1.9-0.7c-28.2-10.3-60.6,4.1-70.4,32.5c-9.5,27.6,4.8,57.8,32.3,67.8l82.2,30c29.5,10.8,53.6-6.1,53.6-37.5      c2.2-6.1,3.3-12.3,3.3-18.4c0-21.9-13.5-42.4-35.3-50.4l-2.4-0.9l66.9-104.9c1.9-2.9,5.4-4.4,8.8-3.7      c32.2,6.6,65.6,10.1,99.8,10.1c4,0,8.1-0.1,12.1-0.1C8752,6365.2,8624.5,6169,8624.5,5943z" />
			</g>
			<ellipse
   id="circle3001"
   class="st12"
   cx="8651.3"
   cy="6187.9"
   rx="1.5"
   ry="1.4" />
			<g
   id="g3005">
				<path
   id="path3003"
   class="st13"
   d="M9063,5943h-18.8c-11.7,0-21.3-9.5-21.3-21.3c0-11.7,9.5-21.3,21.3-21.3h18.8      c11.7,0,21.3,9.5,21.3,21.3C9084.3,5933.5,9074.7,5943,9063,5943z" />
			</g>
			<g
   id="g3009">
				<path
   id="path3007"
   class="st13"
   d="M8812.6,6314.7h-19.3c-11.7,0-21.3-9.5-21.3-21.3c0-11.7,9.5-21.3,21.3-21.3h19.3      c11.7,0,21.3,9.5,21.3,21.3C8833.9,6305.1,8824.4,6314.7,8812.6,6314.7z" />
			</g>
			<g
   id="g3013">
				<path
   id="path3011"
   class="st12"
   d="M8614.3,6005.1h-18.6c-11.7,0-21.3-9.5-21.3-21.3c0-11.7,9.5-21.3,21.3-21.3h18.6      c11.7,0,21.3,9.5,21.3,21.3C8635.6,5995.5,8626.1,6005.1,8614.3,6005.1z" />
			</g>
			<g
   id="g3017">
				<path
   id="path3015"
   class="st13"
   d="M8991.9,5633.1H8966c-11.7,0-21.3-9.5-21.3-21.3c0-11.7,9.5-21.3,21.3-21.3h25.9      c11.7,0,21.3,9.5,21.3,21.3C9013.2,5623.6,9003.7,5633.1,8991.9,5633.1z" />
			</g>
			<g
   id="g3021">
				<path
   id="path3019"
   class="st12"
   d="M9161.9,6245.5h-28.6c-11.7,0-21.3-9.5-21.3-21.3c0-11.7,9.5-21.3,21.3-21.3h28.6      c11.7,0,21.3,9.5,21.3,21.3C9183.2,6235.9,9173.7,6245.5,9161.9,6245.5z" />
			</g>
		</g>
		
			<ellipse
   id="ellipse3025"
   transform="matrix(0.9105 -0.4135 0.4135 0.9105 -1606.1508 4140.4277)"
   class="st12"
   cx="8762"
   cy="5780.7"
   rx="142.2"
   ry="125.8" />
	</g>
	<rect
   id="rect3389"
   x="-2.6"
   y="363.9"
   class="st15"
   width="602.4"
   height="59.8" />
	<g
   id="g3379"
   transform="matrix(0.04289583,0,0,0.04371539,19.805325,116.7188)">
		<path
   id="path3213"
   class="st16"
   d="M2185,5953H869.7c-12.5,0-22.7,10.2-22.7,22.7s10.2,22.7,22.7,22.7H2185    c12.5,0,22.7-10.2,22.7-22.7S2197.5,5953,2185,5953z" />
		<g
   id="g3223">
			<path
   id="path3215"
   class="st17"
   d="M1028.5,5136.6h181.4c12.5,0,22.7-10.2,22.7-22.7s-10.2-22.7-22.7-22.7h-181.4     c-37.6,0-68-30.5-68-68c0-37.6,30.5-68,68-68c37.6,0,68,30.5,68,68c0,12.5,10.2,22.7,22.7,22.7s22.7-10.2,22.7-22.7     c0-62.6-50.8-113.4-113.4-113.4s-113.4,50.8-113.4,113.4S965.9,5136.6,1028.5,5136.6z" />
			<path
   id="path3217"
   class="st17"
   d="M1300.6,5136.6h45.4c12.5,0,22.7-10.2,22.7-22.7s-10.2-22.7-22.7-22.7h-45.4     c-12.5,0-22.7,10.2-22.7,22.7S1288.1,5136.6,1300.6,5136.6z" />
			<path
   id="path3219"
   class="st17"
   d="M1663.4,5091.3h45.4c12.5,0,22.7-10.2,22.7-22.7c0-12.5-10.2-22.7-22.7-22.7h-45.4     c-12.5,0-22.7,10.2-22.7,22.7C1640.8,5081.1,1650.9,5091.3,1663.4,5091.3z" />
			<path
   id="path3221"
   class="st17"
   d="M1459.3,5091.3h113.4c12.5,0,22.7-10.2,22.7-22.7c0-12.5-10.2-22.7-22.7-22.7h-113.4     c-25,0-45.3-20.3-45.3-45.4c0-25,20.3-45.3,45.4-45.3c19.2,0,36.3,12.1,42.7,30.2c3.7,12,16.4,18.7,28.3,15     c12-3.7,18.7-16.4,15-28.3c-0.2-0.6-0.4-1.2-0.6-1.8c-16.7-47.2-68.5-72-115.8-55.3s-72,68.5-55.3,115.8     C1386.6,5067,1420.9,5091.3,1459.3,5091.3z" />
		</g>
		<path
   id="path3225"
   class="st18"
   d="M2162.3,5883.9v-424.1c-1.9-71.4-36.6-137.9-94.1-180.4c-65.3-49.5-145.2-75.9-227.1-74.8    H961.3c-38,0-68.8,24.5-68.8,54.7v624.6H2162.3z" />
		<g
   id="g3231">
			<path
   id="path3227"
   class="st19"
   d="M1028.5,5793.2l-142.7,1.1c-18.6,22.3-21.3,53.8-6.8,79l6.8,11.7l142.7-1.1V5793.2z" />
			<path
   id="path3229"
   class="st19"
   d="M2026.3,5883.9l142.5,1.1l6.8-11.7c14.6-25.1,11.9-56.7-6.8-79l-142.5-1.1V5883.9z" />
		</g>
		<g
   id="g3237">
			<ellipse
   id="circle3233"
   class="st20"
   cx="1141.9"
   cy="5839.6"
   rx="5.8"
   ry="5.9" />
			<ellipse
   id="circle3235"
   class="st20"
   cx="1912.9"
   cy="5839.6"
   rx="5.8"
   ry="5.9" />
		</g>
		<g
   id="g3251">
			<path
   id="path3239"
   class="st21"
   d="M1209.9,5340.7h90.7v136.1h-90.7V5340.7z" />
			<path
   id="path3241"
   class="st21"
   d="M1618.1,5340.7h113.4v136.1h-113.4V5340.7z" />
			<path
   id="path3243"
   class="st21"
   d="M1346,5340.7h90.7v136.1H1346V5340.7z" />
			<path
   id="path3245"
   class="st21"
   d="M1482,5340.7h90.7v136.1H1482V5340.7z" />
			<path
   id="path3247"
   class="st21"
   d="M1051.2,5340.7h113.4v136.1h-113.4V5340.7z" />
			<path
   id="path3249"
   class="st21"
   d="M1912.9,5318v181.4h249.4v-39.8c-0.7-52.5-20.2-103.1-54.9-142.5L1912.9,5318z" />
		</g>
		<path
   id="path3253"
   class="st22"
   d="M2071.6,5658.2c-12.5,0-22.7-10.2-22.7-22.7v-45.4c0-12.5,10.2-22.7,22.7-22.7    s22.7,10.2,22.7,22.7v45.4C2094.3,5648,2084.2,5658.2,2071.6,5658.2z" />
		<g
   id="g3259">
			<ellipse
   id="circle3255"
   class="st21"
   cx="1141.9"
   cy="5839.6"
   rx="1.9"
   ry="2" />
			<ellipse
   id="circle3257"
   class="st21"
   cx="1912.9"
   cy="5839.6"
   rx="1.9"
   ry="2" />
		</g>
		<g
   id="g3273">
			<path
   id="path3261"
   class="st19"
   d="M915.1,6066.4c25,0,45.4,20.3,45.4,45.4v136.1l0,0h-90.7l0,0v-136.1     C869.7,6086.7,890,6066.4,915.1,6066.4z" />
			<path
   id="path3263"
   class="st19"
   d="M1141.9,6066.4c25,0,45.4,20.3,45.4,45.4v136.1l0,0h-90.7l0,0v-136.1     C1096.5,6086.7,1116.8,6066.4,1141.9,6066.4z" />
			<path
   id="path3265"
   class="st19"
   d="M1368.6,6066.4c25,0,45.4,20.3,45.4,45.4v136.1l0,0h-90.7l0,0v-136.1     C1323.3,6086.7,1343.6,6066.4,1368.6,6066.4z" />
			<path
   id="path3267"
   class="st19"
   d="M1595.4,6066.4c25,0,45.4,20.3,45.4,45.4v136.1l0,0h-90.7l0,0v-136.1     C1550.1,6086.7,1570.4,6066.4,1595.4,6066.4z" />
			<path
   id="path3269"
   class="st19"
   d="M1822.2,6066.4c25,0,45.4,20.3,45.4,45.4v136.1l0,0h-90.7l0,0v-136.1     C1776.8,6086.7,1797.1,6066.4,1822.2,6066.4z" />
			<path
   id="path3271"
   class="st19"
   d="M2049,6066.4c25,0,45.4,20.3,45.4,45.4v136.1l0,0h-90.7l0,0v-136.1     C2003.6,6086.7,2023.9,6066.4,2049,6066.4z" />
		</g>
		<g
   id="g3287">
			<path
   id="path3275"
   class="st22"
   d="M869.7,6134.4h90.7v45.4h-90.7V6134.4z" />
			<path
   id="path3277"
   class="st22"
   d="M1096.5,6134.4h90.7v45.4h-90.7V6134.4z" />
			<path
   id="path3279"
   class="st22"
   d="M1323.3,6134.4h90.7v45.4h-90.7V6134.4z" />
			<path
   id="path3281"
   class="st22"
   d="M1550.1,6134.4h90.7v45.4h-90.7V6134.4z" />
			<path
   id="path3283"
   class="st22"
   d="M1776.8,6134.4h90.7v45.4h-90.7V6134.4z" />
			<path
   id="path3285"
   class="st22"
   d="M2003.6,6134.4h90.7v45.4h-90.7V6134.4z" />
		</g>
		<g
   id="g3289">
		</g>
		<g
   id="g3291">
		</g>
		<g
   id="g3293">
		</g>
		<g
   id="g3295">
		</g>
		<g
   id="g3297">
		</g>
		<g
   id="g3299">
		</g>
		<g
   id="g3301">
		</g>
		<g
   id="g3303">
		</g>
		<g
   id="g3305">
		</g>
		<g
   id="g3307">
		</g>
		<g
   id="g3309">
		</g>
		<g
   id="g3311">
		</g>
		<g
   id="g3313">
		</g>
		<g
   id="g3315">
		</g>
		<g
   id="g3317">
		</g>
	</g>
	<g
   id="flat"
   transform="matrix(0.37592593,0,0,0.35805172,161.56439,114.43811)">
		<path
   id="path1963"
   class="st23"
   d="M811.2,679.9l62.4-68l62.4,68H811.2z" />
		<path
   id="path1965"
   class="st24"
   d="M814,679.9h119.1v79.4H814V679.9z" />
		<path
   id="path1967"
   class="st25"
   d="M836.7,617.6H814v48.2l22.7-23.5V617.6z" />
		<path
   id="path1969"
   class="st26"
   d="M808.3,600.5h34v17h-34V600.5z" />
		<path
   id="path1971"
   class="st27"
   d="M944.4,674.3l-70.7-73.7l-71,73.7l8.5,8.5l62.4-65.2l62.4,65.2L944.4,674.3z" />
		<path
   id="path1973"
   class="st28"
   d="M816.8,626.1h11.3v5.7h-11.3V626.1z" />
		<path
   id="path1975"
   class="st28"
   d="M816.8,637.4h11.3v5.7h-11.3V637.4z" />
		<path
   id="path1977"
   class="st29"
   d="M831,713.9h28.3v45.4H831V713.9z" />
		<path
   id="path1979"
   class="st30"
   d="M845.2,733.8h5.7v5.7h-5.7V733.8z" />
		<path
   id="path1981"
   class="st31"
   d="M876.4,696.9h17v28.3h-17V696.9z" />
		<path
   id="path1983"
   class="st32"
   d="M893.4,696.9h17v28.3h-17V696.9z" />
		<path
   id="path1985"
   class="st31"
   d="M950.1,606.2c-3.1,0-5.7,2.5-5.7,5.7v-5.7c0-6.3-5.1-11.3-11.3-11.3s-11.3,5.1-11.3,11.3v5.7    c0-3.1-2.5-5.7-5.7-5.7s-5.7,2.5-5.7,5.7v11.3h45.4v-11.3C955.7,608.8,953.2,606.2,950.1,606.2z" />
		<path
   id="path1987"
   class="st25"
   d="M859.4,736.6h73.7v22.7h-73.7V736.6z" />
		<path
   id="path1989"
   class="st25"
   d="M814,736.6h17v22.7h-17V736.6z" />
		<path
   id="path1991"
   class="st23"
   d="M859.4,736.6H882V748h-22.7V736.6z" />
		<path
   id="path1993"
   class="st26"
   d="M910.4,736.6h22.7V748h-22.7V736.6z" />
		<path
   id="path1995"
   class="st25"
   d="M882,736.6h28.3V748H882V736.6z" />
		<path
   id="path1997"
   class="st26"
   d="M873.5,748h22.7v11.3h-22.7V748z" />
		<path
   id="path1999"
   class="st23"
   d="M896.2,748h22.7v11.3h-22.7V748z" />
		<path
   id="path2001"
   class="st25"
   d="M859.4,748h14.2v11.3h-14.2V748z" />
		<path
   id="path2003"
   class="st25"
   d="M918.9,748h14.2v11.3h-14.2V748z" />
		<path
   id="path2005"
   class="st23"
   d="M814,736.6h17V748h-17V736.6z" />
		<path
   id="path2007"
   class="st32"
   d="M831,696.9h28.3v17H831V696.9z" />
	</g>
	<g
   id="Layer_15"
   transform="matrix(0.33324927,0,0,0.33333333,89.803103,115.16295)">
		<path
   id="path2042"
   class="st33"
   d="M528.4,752.9h113.4v51H528.4V752.9z" />
		<path
   id="path2044"
   class="st34"
   d="M500.1,735.9h170.1v17H500.1V735.9z" />
		<path
   id="path2046"
   class="st34"
   d="M641.8,752.9h17v56.7h-17V752.9z" />
		<path
   id="path2048"
   class="st34"
   d="M511.4,752.9h17v56.7h-17V752.9z" />
		<path
   id="path2050"
   class="st35"
   d="M602.1,724.6h62.4v11.3h-62.4V724.6z" />
		<path
   id="path2052"
   class="st36"
   d="M607.8,724.6v-34c0-3.1,2.5-5.7,5.7-5.7h39.7c3.1,0,5.7,2.5,5.7,5.7v34H607.8z" />
		<path
   id="path2054"
   class="st36"
   d="M568.1,707.6h22.7v28.3h-22.7V707.6z" />
		<path
   id="path2056"
   class="st37"
   d="M505.7,724.6h28.3v11.3h-28.3V724.6z" />
		<path
   id="path2058"
   class="st38"
   d="M500.1,713.2h28.3v11.3h-28.3V713.2z" />
		<circle
   id="circle2060"
   class="st39"
   cx="633.3"
   cy="704.7"
   r="8.5" />
		<path
   id="path2062"
   class="st35"
   d="M568.1,727.4h-5.7c-4.7,0-8.5-3.8-8.5-8.5s3.8-8.5,8.5-8.5h5.7v5.7h-5.7    c-1.6,0-2.8,1.3-2.8,2.8c0,1.6,1.3,2.8,2.8,2.8h5.7V727.4z" />
		<path
   id="path2064"
   class="st36"
   d="M572.9,701.1l-4-4l3.7-3.7c1.6-1.6,1.6-4.1,0-5.7l-1.7-1.7c-1.8-1.8-2.8-4.3-2.8-6.8v-2.8h5.7    v2.8c0,1.1,0.4,2.1,1.2,2.8l1.7,1.7c3.8,3.8,3.8,9.9,0,13.6c0,0,0,0,0,0L572.9,701.1z" />
		<path
   id="path2066"
   class="st36"
   d="M584.3,701.1l-4-4l3.7-3.7c1.6-1.6,1.6-4.1,0-5.7l-1.7-1.7c-1.8-1.8-2.8-4.3-2.8-6.8v-2.8h5.7    v2.8c0,1.1,0.4,2.1,1.2,2.8l1.7,1.7c3.8,3.8,3.8,9.9,0,13.6c0,0,0,0,0,0L584.3,701.1z" />
		<ellipse
   id="circle2068"
   class="st36"
   cx="528.4"
   cy="667.9"
   rx="9.4"
   ry="9.4" />
		<g
   id="g2088">
			<path
   id="path2070"
   class="st39"
   d="M531.4,639.7c-1-0.1-2-0.2-3-0.2c-0.9,0-1.8,0-2.7,0l-0.1,8.5h5.7L531.4,639.7z" />
			<path
   id="path2072"
   class="st39"
   d="M525.6,696.2c0.9,0,1.9,0.1,2.8,0.1c1,0,1.9,0,2.8-0.1v-8.5h-5.7V696.2z" />
			<path
   id="path2074"
   class="st39"
   d="M500.1,667.9c0,0.9,0,1.7,0,2.6l8.5,0.3V665l-8.5-0.3C500,665.8,500,666.8,500.1,667.9z" />
			<path
   id="path2076"
   class="st39"
   d="M548.3,670.7h8.5c0-0.9,0.1-1.9,0.1-2.8c0-1,0-1.9-0.1-2.8h-8.5V670.7z" />
			<path
   id="path2078"
   class="st39"
   d="M546.4,645.9l-5.7,5.7l4,4l5.7-5.7C549.2,648.5,547.8,647.1,546.4,645.9z" />
			<path
   id="path2080"
   class="st39"
   d="M506.5,685.8c1.2,1.5,2.5,2.8,4,4l5.7-5.7l-3.9-4.1L506.5,685.8z" />
			<path
   id="path2082"
   class="st39"
   d="M506.5,649.9l5.7,5.7l4.1-3.9l-5.7-5.7C509.1,647.2,507.7,648.5,506.5,649.9z" />
			<path
   id="path2084"
   class="st39"
   d="M544.6,680l-4,4l5.7,5.7c1.5-1.2,2.8-2.5,4-4L544.6,680z" />
			<path
   id="path2086"
   class="st39"
   d="M537.7,681.2l-11.3-11.3c-0.5-0.5-0.8-1.3-0.8-2v-14.2h5.7v13l10.5,10.5L537.7,681.2z" />
		</g>
	</g>
	<rect
   id="rect3391"
   x="-1.7"
   y="194.4"
   class="st40"
   width="353"
   height="120.2" />
	<circle
   id="path3449"
   class="st41"
   cx="97.9"
   cy="290.7"
   r="0.1" />
	<circle
   id="path3451"
   class="st41"
   cx="119.4"
   cy="177.5"
   r="0.1" />
	<path
   id="path3489"
   class="st2"
   d="M196.6,273.7l4-3.7" />
	<path
   id="path3566"
   class="st2"
   d="M323.9,262.2l-129.2,39" />
	<text
   transform="matrix(1 0 0 1 6.5322 218.8369)"
   class="st3 st42"
   id="text284">新冠肺炎(COVID-19)於2020年蔓延全球,造成嚴重疫情。</text>
	<text
   transform="matrix(1 0 0 1 6.5322 235.2588)"
   class="st3 st42"
   id="text286">已經逐漸習慣疫情期間人心惶惶的氣氛,</text>
	<text
   transform="matrix(1 0 0 1 6.5322 251.6816)"
   class="st3 st42"
   id="text288">但是日子在走,班還是要上。</text>
	<text
   transform="matrix(1 0 0 1 6.5322 268.1035)"
   class="st3 st42"
   id="text290">這裡提供忙碌的上班族一些日常防疫原則,</text>
	<text
   transform="matrix(1 0 0 1 6.5322 284.5264)"
   class="st3 st42"
   id="text292">一些避免觸碰的小地方與手部清潔指示</text>
	<text
   transform="matrix(1 0 0 1 6.5322 300.9482)"
   class="st3 st42"
   id="text294">祝褔努力生存的大家都可以平安渡過這次疫情</text>
	<rect
   id="rect3633"
   x="124.6"
   y="387.2"
   class="st43"
   width="29.9"
   height="5.6" />
	<rect
   id="rect3633-6"
   x="202"
   y="387.6"
   class="st43"
   width="29.9"
   height="5.6" />
	<rect
   id="rect3633-6-8"
   x="327.3"
   y="388"
   class="st43"
   width="29.9"
   height="5.6" />
	<rect
   id="rect3633-6-8-9"
   x="411.9"
   y="387.1"
   class="st43"
   width="29.9"
   height="5.6" />
	<rect
   id="rect3633-6-8-5"
   x="538.1"
   y="387.3"
   class="st43"
   width="29.9"
   height="5.6" />
	<rect
   id="rect3633-6-8-4"
   x="7.8"
   y="387.2"
   class="st43"
   width="29.9"
   height="5.6" />
</g>
</svg>
